<?xml version="1.0" encoding="UTF-8"?><svg id="Layer_2" xmlns="http://www.w3.org/2000/svg" viewBox="0 0 219.06 100"><defs><style>.cls-1{fill:#fff200;}.cls-1,.cls-2,.cls-3,.cls-4{stroke-width:0px;}.cls-2{fill:none;}.cls-3{fill:#be1e2d;}.cls-4{fill:#27aae1;}</style></defs><g id="Layer_1-2"><path class="cls-4" d="M48.49,97.55c-29.93,0-29.93-95.09,0-95.09h98.92c28.82,0,28.82,95.09,0,95.09H48.49Z"/><path class="cls-2" d="M147.41,2.45H48.49c-29.93,0-29.93,95.09,0,95.09h98.92c28.82,0,28.82-95.09,0-95.09Z"/><path class="cls-3" d="M205.92,88.52c2.77-9.76,7.86-17.16,12.27-18.45,1.16-12.69,1.16-27.45,0-40.15-4.41-1.29-9.51-8.69-12.27-18.45-1.16-4.08-1.74-8.02-1.82-11.48H10.15c-13.53,0-13.53,100,0,100h193.95c.08-3.46.66-7.4,1.82-11.48ZM154.06,95.63l-29.47-4.85c9.54-14.76,9.54-66.8,0-81.56l29.47-4.85c19.94,12.18,19.94,79.08,0,91.26ZM115.83,5.29h-18.3v-2.84h39.11l-20.81,2.84ZM48.49,2.45h11.42v2.87c-.17.01-.33.02-.5.05l-15.47-2.11c1.43-.52,2.95-.81,4.55-.81ZM62.04,5.29v-2.84h33.36v2.84h-33.36ZM38.42,6.79l15.87,2.61c-9.75,14.93-9.75,66.26,0,81.19l-15.87,2.61c-16.5-15.84-16.5-70.58,0-86.42ZM48.49,97.55c-1.6,0-3.12-.29-4.55-.81l15.47-2.11c.16.03.33.04.5.05v2.87h-11.42ZM62.04,97.55v-2.84h33.36v2.84h-33.36ZM97.53,97.55v-2.84h18.3l20.82,2.84h-39.11Z"/><path class="cls-1" d="M218.19,70.07c-4.41,1.29-9.51,8.69-12.27,18.45-1.16,4.08-1.74,8.02-1.82,11.48h3.43c5.58,0,9.13-13.16,10.67-29.93Z"/><path class="cls-1" d="M218.19,29.93c-1.53-16.77-5.09-29.93-10.67-29.93h-3.43c.08,3.46.66,7.4,1.82,11.48,2.77,9.76,7.86,17.16,12.27,18.45Z"/></g></svg>