<?xml version="1.0" encoding="UTF-8"?><svg id="Layer_2" xmlns="http://www.w3.org/2000/svg" viewBox="0 0 100 219.06"><defs><style>.cls-1{fill:#fff200;}.cls-1,.cls-2,.cls-3,.cls-4{stroke-width:0px;}.cls-2{fill:none;}.cls-3{fill:#be1e2d;}.cls-4{fill:#27aae1;}</style></defs><g id="Layer_1-2"><path class="cls-4" d="M97.55,170.57c0,29.93-95.09,29.93-95.09,0v-98.92c0-28.82,95.09-28.82,95.09,0v98.92Z"/><path class="cls-2" d="M2.45,71.65v98.92c0,29.93,95.09,29.93,95.09,0v-98.92c0-28.82-95.09-28.82-95.09,0Z"/><path class="cls-3" d="M88.52,13.14c-9.76-2.77-17.16-7.86-18.45-12.27C57.38-.29,42.62-.29,29.93.87c-1.29,4.41-8.69,9.51-18.45,12.27-4.08,1.16-8.02,1.74-11.48,1.82v193.95c0,13.53,100,13.53,100,0V14.96c-3.46-.08-7.4-.66-11.48-1.82ZM95.63,65l-4.85,29.47c-14.76-9.54-66.8-9.54-81.56,0l-4.85-29.47c12.18-19.94,79.08-19.94,91.26,0ZM5.29,103.23v18.3h-2.84v-39.11l2.84,20.81ZM2.45,170.57v-11.42h2.87c.01.17.02.33.05.5l-2.11,15.47c-.52-1.43-.81-2.95-.81-4.55ZM5.29,157.02h-2.84v-33.36h2.84v33.36ZM6.79,180.64l2.61-15.87c14.93,9.75,66.26,9.75,81.19,0l2.61,15.87c-15.84,16.5-70.58,16.5-86.42,0ZM97.55,170.57c0,1.6-.29,3.12-.81,4.55l-2.11-15.47c.03-.16.04-.33.05-.5h2.87v11.42ZM97.55,157.02h-2.84v-33.36h2.84v33.36ZM97.55,121.53h-2.84v-18.3l2.84-20.82v39.11Z"/><path class="cls-1" d="M70.07.87c1.29,4.41,8.69,9.51,18.45,12.27,4.08,1.16,8.02,1.74,11.48,1.82v-3.43c0-5.58-13.16-9.13-29.93-10.67Z"/><path class="cls-1" d="M29.93.87C13.16,2.4,0,5.96,0,11.54v3.43c3.46-.08,7.4-.66,11.48-1.82C21.24,10.38,28.64,5.28,29.93.87Z"/></g></svg>