<?xml version="1.0" encoding="UTF-8"?><svg id="Layer_2" xmlns="http://www.w3.org/2000/svg" viewBox="0 0 300 300"><defs><style>.cls-1{fill:goldenrod;stroke-width:0px;}</style></defs><g id="Layer_1-2"><path class="cls-1" d="M253.91,249.67l45.59-45.59.49.49v-9.47l-.49.49-45.59-45.59,45.59-45.59.49.49v-9.47l-.49.49-45.59-45.59,45.59-45.59.49.49V0h-5.23l.49.49-45.59,45.59L204.08.49l.49-.49h-9.47l.49.49-45.59,45.59L104.41.49l.49-.49h-9.47l.49.49-45.59,45.59L4.74.49l.49-.49H0v5.23l.49-.49,45.59,45.59L.49,95.92l-.49-.49v9.47l.49-.49,45.59,45.59L.49,195.59l-.49-.49v9.47l.49-.49,45.59,45.59L.49,295.26l-.49-.49v5.23h5.23l-.49-.49,45.59-45.59,45.59,45.59-.49.49h9.47l-.49-.49,45.59-45.59,45.59,45.59-.49.49h9.47l-.49-.49,45.59-45.59,45.59,45.59-.49.49h5.23v-5.23l-.49.49-45.59-45.59ZM295.27,100.16l-45.59,45.59-45.59-45.59,45.59-45.59,45.59,45.59ZM245.43,150l-45.59,45.59-45.59-45.59,45.59-45.59,45.59,45.59ZM199.84,4.73l45.59,45.59-45.59,45.59-45.59-45.59L199.84,4.73ZM195.59,100.16l-45.59,45.59-45.59-45.59,45.59-45.59,45.59,45.59ZM145.76,150l-45.59,45.59-45.59-45.59,45.59-45.59,45.59,45.59ZM100.16,4.73l45.59,45.59-45.59,45.59-45.59-45.59L100.16,4.73ZM4.74,100.16l45.59-45.59,45.59,45.59-45.59,45.59L4.74,100.16ZM4.73,199.84l45.59-45.59,45.59,45.59-45.59,45.59L4.73,199.84ZM100.16,295.26l-45.59-45.59,45.59-45.59,45.59,45.59-45.59,45.59ZM104.41,199.84l45.59-45.59,45.59,45.59-45.59,45.59-45.59-45.59ZM199.84,295.26l-45.59-45.59,45.59-45.59,45.59,45.59-45.59,45.59ZM204.08,199.84l45.59-45.59,45.59,45.59-45.59,45.59-45.59-45.59Z"/></g></svg>